<svg id="Layer_1" data-name="Layer 1" xmlns="http://www.w3.org/2000/svg" viewBox="0 0 252 74"><defs><style>.cls-1{fill:#f29908;}.cls-2{fill:#f9f9f9;}</style></defs><title>light-logo</title><path class="cls-1" d="M70.31,55.52a.49.49,0,0,1,0-.44.54.54,0,0,1,.32-.31.61.61,0,0,1,.44,0,.59.59,0,0,1,.32.32l4.06,9.42,1.92-4.42-2-4.56a.52.52,0,0,1,0-.44.56.56,0,0,1,.33-.31.58.58,0,0,1,.43,0,.61.61,0,0,1,.33.32L78,58.61l1.54-3.53a.57.57,0,0,1,.75-.31.54.54,0,0,1,.32.31.52.52,0,0,1,0,.44l-2,4.55,1.9,4.43,4.09-9.42a.57.57,0,0,1,.75-.31.54.54,0,0,1,.32.31.52.52,0,0,1,0,.44l-4.6,10.64a.53.53,0,0,1-.23.28.59.59,0,0,1-.34.08.58.58,0,0,1-.3-.09.54.54,0,0,1-.22-.27l-2-4.62-2,4.62a.54.54,0,0,1-.22.27.59.59,0,0,1-.31.09.56.56,0,0,1-.34-.08.53.53,0,0,1-.23-.28Z"/><path class="cls-1" d="M85,62.24a4.34,4.34,0,0,1,.35-1.72,4.26,4.26,0,0,1,.94-1.4,4.41,4.41,0,0,1,1.41-.94,4.36,4.36,0,0,1,3.4,0,4.58,4.58,0,0,1,1.39.93,4.44,4.44,0,0,1,.94,1.38,4.37,4.37,0,0,1,.36,1.69v3.75a.54.54,0,0,1-.17.42.54.54,0,0,1-.42.18.54.54,0,0,1-.41-.18.57.57,0,0,1-.16-.42v-.79a4.62,4.62,0,0,1-1.43,1.08,3.9,3.9,0,0,1-1.79.42,4.24,4.24,0,0,1-1.7-.35,4.41,4.41,0,0,1-1.41-.94A4.39,4.39,0,0,1,85,62.24Zm1.17,0a3.1,3.1,0,0,0,.25,1.25,3.28,3.28,0,0,0,.69,1,3.19,3.19,0,0,0,2.29,1,3.22,3.22,0,0,0,1.28-.26,3.15,3.15,0,0,0,1-.7A3.26,3.26,0,0,0,92.4,61a3,3,0,0,0-.68-1,3.12,3.12,0,0,0-1-.69A3.22,3.22,0,0,0,89.42,59a3.12,3.12,0,0,0-1.26.26,3.16,3.16,0,0,0-1,.69,3.21,3.21,0,0,0-.69,1A3.12,3.12,0,0,0,86.19,62.24Z"/><path class="cls-1" d="M98.83,64.58l2.81-6.39a.59.59,0,0,1,.32-.32.58.58,0,0,1,.75.33.61.61,0,0,1,0,.46L99.35,66.2l0,.07L98,69.37a.61.61,0,0,1-.33.32.57.57,0,0,1-.46,0,.42.42,0,0,1-.27-.31.65.65,0,0,1,0-.45L98.21,66,95,58.65a.59.59,0,0,1,0-.45.54.54,0,0,1,.31-.32.52.52,0,0,1,.44,0,.61.61,0,0,1,.33.32Z"/><path class="cls-1" d="M110,57.84h1.23a.57.57,0,0,1,.41.17.54.54,0,0,1,.17.4.6.6,0,0,1-.17.43.56.56,0,0,1-.41.16H110v7a.54.54,0,0,1-.17.4.57.57,0,0,1-.41.17.54.54,0,0,1-.4-.17.51.51,0,0,1-.17-.4V59h-1a.54.54,0,0,1-.41-.17.57.57,0,0,1-.17-.42.54.54,0,0,1,.17-.4.58.58,0,0,1,.41-.17h1V55.28a.53.53,0,0,1,.17-.41.58.58,0,0,1,.4-.16.6.6,0,0,1,.41.16.57.57,0,0,1,.17.41Z"/><path class="cls-1" d="M112.6,60.52a4.26,4.26,0,0,1,.94-1.4,4.41,4.41,0,0,1,1.41-.94,4.33,4.33,0,0,1,3.41,0,4.48,4.48,0,0,1,1.4.94,4.42,4.42,0,0,1,.94,1.4,4.5,4.5,0,0,1,0,3.43,4.4,4.4,0,0,1-2.34,2.33,4.33,4.33,0,0,1-3.41,0,4.41,4.41,0,0,1-1.41-.94,4.38,4.38,0,0,1-.94-4.82Zm1.07,3a3.43,3.43,0,0,0,.68,1,3.08,3.08,0,0,0,1,.7,3.17,3.17,0,0,0,1.27.26,3.13,3.13,0,0,0,1.27-.26,3.08,3.08,0,0,0,1-.7,3.28,3.28,0,0,0,.69-1,3.28,3.28,0,0,0,0-2.51,3.21,3.21,0,0,0-.69-1,3.06,3.06,0,0,0-1-.69,3.21,3.21,0,0,0-2.53,0,3.06,3.06,0,0,0-1,.69,3.21,3.21,0,0,0-.69,1,3.16,3.16,0,0,0,0,2.51Z"/><path class="cls-1" d="M126.34,60.52a4.28,4.28,0,0,1,1-1.4,4.37,4.37,0,0,1,1.4-.94,4.25,4.25,0,0,1,1.71-.35,4.32,4.32,0,0,1,1.71.35,4.43,4.43,0,0,1,1.39.94,4.26,4.26,0,0,1,.94,1.4,4.38,4.38,0,0,1-.94,4.82,4.43,4.43,0,0,1-1.39.94,4.32,4.32,0,0,1-1.71.35,4.25,4.25,0,0,1-1.71-.35A4.46,4.46,0,0,1,126.34,64a4.5,4.5,0,0,1,0-3.43Zm1.07,3a3.28,3.28,0,0,0,.69,1,3.15,3.15,0,0,0,1,.7,3.26,3.26,0,0,0,2.55,0,3.3,3.3,0,0,0,1-.7,3.26,3.26,0,0,0,.68-3.53,3,3,0,0,0-.68-1,3.27,3.27,0,0,0-1-.69,3.23,3.23,0,0,0-2.54,0,3.16,3.16,0,0,0-1,.69,3.21,3.21,0,0,0-.69,1,3.28,3.28,0,0,0,0,2.51Z"/><path class="cls-1" d="M137.28,59.37a4.51,4.51,0,0,1,1.5-1.12,4.29,4.29,0,0,1,1.89-.42h.07a.61.61,0,0,1,.46.16.59.59,0,0,1,.15.41.54.54,0,0,1-.17.42.61.61,0,0,1-.44.16h-.07a3.23,3.23,0,0,0-1.31.27,3.38,3.38,0,0,0-1.81,1.83,3.34,3.34,0,0,0-.27,1.34v3.51a.57.57,0,0,1-.17.42.54.54,0,0,1-.4.17.61.61,0,0,1-.42-.17.54.54,0,0,1-.17-.42V58.41a.54.54,0,0,1,.17-.41.61.61,0,0,1,.42-.17.57.57,0,0,1,.41.17.62.62,0,0,1,.16.41Z"/><path class="cls-1" d="M150.26,65.5v0a4.72,4.72,0,0,1-.36,1.79,4.21,4.21,0,0,1-2.32,2.32,4.54,4.54,0,0,1-1.69.32,4.28,4.28,0,0,1-1.62-.31,3.79,3.79,0,0,1-1.34-.85.67.67,0,0,1-.21-.47.56.56,0,0,1,.19-.43.61.61,0,0,1,.27-.15h.24a.67.67,0,0,1,.21.1l.2.13a3,3,0,0,0,1,.61,3.38,3.38,0,0,0,1.15.19,3.14,3.14,0,0,0,1.22-.26,3.22,3.22,0,0,0,1-.69,3.18,3.18,0,0,0,.66-1,3.43,3.43,0,0,0,.24-1.31v-.28a4.36,4.36,0,0,1-3.23,1.41,4.24,4.24,0,0,1-1.7-.35,4.38,4.38,0,0,1-2.35-5.76,4.28,4.28,0,0,1,.95-1.4,4.37,4.37,0,0,1,1.4-.94,4.24,4.24,0,0,1,1.7-.35,4.3,4.3,0,0,1,1.8.38,4.35,4.35,0,0,1,1.43,1V58.4a.57.57,0,0,1,.17-.41.57.57,0,0,1,.41-.16.56.56,0,0,1,.41.16.54.54,0,0,1,.18.41Zm-7.63-3.26a3.1,3.1,0,0,0,.25,1.25,3.28,3.28,0,0,0,.69,1,3.19,3.19,0,0,0,2.29,1,3.22,3.22,0,0,0,1.28-.26,3.15,3.15,0,0,0,1-.7,3.26,3.26,0,0,0,.68-3.53,3,3,0,0,0-.68-1,3.12,3.12,0,0,0-1-.69,3.22,3.22,0,0,0-1.28-.26,3.29,3.29,0,0,0-2.29,1,3.21,3.21,0,0,0-.69,1A3.12,3.12,0,0,0,142.63,62.24Z"/><path class="cls-1" d="M151.58,62.24a4.34,4.34,0,0,1,.35-1.72,4.26,4.26,0,0,1,.94-1.4,4.41,4.41,0,0,1,1.41-.94,4.36,4.36,0,0,1,3.4,0,4.58,4.58,0,0,1,1.39.93,4.44,4.44,0,0,1,.94,1.38,4.37,4.37,0,0,1,.36,1.69v3.75a.54.54,0,0,1-.17.42.54.54,0,0,1-.42.18.54.54,0,0,1-.41-.18.57.57,0,0,1-.16-.42v-.79a4.62,4.62,0,0,1-1.43,1.08,3.9,3.9,0,0,1-1.79.42,4.24,4.24,0,0,1-1.7-.35,4.41,4.41,0,0,1-1.41-.94,4.39,4.39,0,0,1-1.29-3.1Zm1.17,0a3.1,3.1,0,0,0,.25,1.25,3.28,3.28,0,0,0,.69,1,3.19,3.19,0,0,0,2.29,1,3.22,3.22,0,0,0,1.28-.26,3.15,3.15,0,0,0,1-.7A3.26,3.26,0,0,0,159,61a3,3,0,0,0-.68-1,3.12,3.12,0,0,0-1-.69A3.22,3.22,0,0,0,156,59a3.12,3.12,0,0,0-1.26.26,3.16,3.16,0,0,0-1,.69,3.21,3.21,0,0,0-.69,1A3.12,3.12,0,0,0,152.75,62.24Z"/><path class="cls-1" d="M169.74,66a.56.56,0,0,1-.16.41.57.57,0,0,1-.42.17.54.54,0,0,1-.4-.17.57.57,0,0,1-.17-.41v-3.9a3.57,3.57,0,0,0-.66-2.27,2.18,2.18,0,0,0-1.79-.79,2.57,2.57,0,0,0-1.92.84,3,3,0,0,0-.6.92,3.2,3.2,0,0,0-.24,1.16v4a.57.57,0,0,1-.17.42.58.58,0,0,1-.82,0,.54.54,0,0,1-.17-.42V58.41a.58.58,0,0,1,.17-.41.61.61,0,0,1,.42-.17.54.54,0,0,1,.4.17.58.58,0,0,1,.17.41v1a4.21,4.21,0,0,1,1.29-1.13,3.06,3.06,0,0,1,1.59-.43,3.45,3.45,0,0,1,1.43.29,3.05,3.05,0,0,1,1.1.85,3.92,3.92,0,0,1,.7,1.33,5.89,5.89,0,0,1,.25,1.74V66Z"/><path class="cls-1" d="M171.59,55.34a.64.64,0,0,1,.49-.2.72.72,0,0,1,.51.2.68.68,0,0,1,.21.51.66.66,0,0,1-.21.48.73.73,0,0,1-.51.21.7.7,0,0,1-.69-.69A.67.67,0,0,1,171.59,55.34Zm1.08,10.59a.57.57,0,0,1-.17.42.58.58,0,0,1-.41.17.57.57,0,0,1-.41-.17.54.54,0,0,1-.17-.42V58.41a.54.54,0,0,1,.17-.41.61.61,0,0,1,.42-.17.54.54,0,0,1,.4.17.58.58,0,0,1,.17.41Z"/><path class="cls-1" d="M175.16,62.19l0,0h0a3.24,3.24,0,0,0,.23,1.2,3.57,3.57,0,0,0,.65,1,3.35,3.35,0,0,0,1,.7,2.77,2.77,0,0,0,1.23.27,3.38,3.38,0,0,0,1.15-.17,3,3,0,0,0,1-.61l.2-.14a.47.47,0,0,1,.22-.09.49.49,0,0,1,.24,0,.5.5,0,0,1,.27.14.54.54,0,0,1,.18.42.66.66,0,0,1-.21.47,3.86,3.86,0,0,1-1.34.86,4.47,4.47,0,0,1-1.62.3,4.23,4.23,0,0,1-1.7-.34,4.3,4.3,0,0,1-2.34-2.3,4.18,4.18,0,0,1-.34-1.69l0-.06s0,0,0,0a4.23,4.23,0,0,1,.34-1.7,4.61,4.61,0,0,1,.94-1.39,4.48,4.48,0,0,1,1.4-.94,4.24,4.24,0,0,1,1.7-.35,4.28,4.28,0,0,1,1.62.31,3.7,3.7,0,0,1,1.34.85.67.67,0,0,1,.21.47.56.56,0,0,1-.19.43.64.64,0,0,1-.26.15.49.49,0,0,1-.24,0,.62.62,0,0,1-.22-.1l-.2-.13a3,3,0,0,0-1-.61,3.38,3.38,0,0,0-1.15-.19,2.91,2.91,0,0,0-1.22.28,3.13,3.13,0,0,0-1,.7,3.44,3.44,0,0,0-.66,1A3.1,3.1,0,0,0,175.16,62.19Z"/><path class="cls-2" d="M2.18,10.61A1.88,1.88,0,0,1,2.17,9,2,2,0,0,1,3.33,7.93a1.94,1.94,0,0,1,1.53,0A2.07,2.07,0,0,1,6,9L20.37,42.38l6.79-15.64L20.21,10.61a2,2,0,0,1,0-1.59,2.15,2.15,0,0,1,2.7-1.11A2.07,2.07,0,0,1,24,9l5.35,12.51L34.8,9a2.15,2.15,0,0,1,1.13-1.11,1.9,1.9,0,0,1,1.55,0A2.08,2.08,0,0,1,38.61,9a1.92,1.92,0,0,1,0,1.59l-7,16.09,6.73,15.68L52.82,9a2.15,2.15,0,0,1,1.11-1.11,2,2,0,0,1,1.57,0A2,2,0,0,1,56.61,9a1.92,1.92,0,0,1,0,1.59L40.32,48.25a1.88,1.88,0,0,1-.83,1,2.14,2.14,0,0,1-1.19.3,2,2,0,0,1-1.08-.33,2,2,0,0,1-.79-1l-7-16.35-7,16.35a2,2,0,0,1-1.89,1.28,2.12,2.12,0,0,1-1.21-.3,1.91,1.91,0,0,1-.82-1Z"/><path class="cls-2" d="M79.53,36.47H60.76l-5,11.82a2,2,0,0,1-1.14,1.12,2.06,2.06,0,0,1-1.63,0,1.78,1.78,0,0,1-1.06-1.14A2.1,2.1,0,0,1,52,46.65L68.33,9a1.94,1.94,0,0,1,1.9-1.25,2,2,0,0,1,1.11.33,2.15,2.15,0,0,1,.75.92L88.28,46.65a2.21,2.21,0,0,1,.12,1.59,1.83,1.83,0,0,1-1,1.12,2,2,0,0,1-1.6,0,2,2,0,0,1-1.18-1.09Zm-9.39-4.12h0a5.07,5.07,0,0,0,4.67-7l-4.68-11-4.66,11A5.07,5.07,0,0,0,70.14,32.35Z"/><path class="cls-2" d="M99,26.64,111.2,8.49a1.89,1.89,0,0,1,1.34-.71,2.23,2.23,0,0,1,2.24,1.78,2.08,2.08,0,0,1-.51,1.67L101.05,30.66V47.5a1.93,1.93,0,0,1-.6,1.44,2,2,0,0,1-1.46.59,2,2,0,0,1-1.43-.59A1.92,1.92,0,0,1,97,47.5V30.69L83.58,11.26a2,2,0,0,1-.49-1.5,2.09,2.09,0,0,1,.72-1.44,2,2,0,0,1,1.5-.5,1.86,1.86,0,0,1,1.41.73Z"/><path class="cls-2" d="M161.17,9.11a21.3,21.3,0,0,1,6.76,4.55,21.66,21.66,0,0,1,4.57,6.74,20.28,20.28,0,0,1,1.69,8.26,20.92,20.92,0,0,1-.77,5.67,21.84,21.84,0,0,1-2.14,5.08,21.54,21.54,0,0,1-3.33,4.3,21.28,21.28,0,0,1-4.31,3.34,21.81,21.81,0,0,1-5.08,2.13,21.22,21.22,0,0,1-11.33,0,21.74,21.74,0,0,1-5.07-2.13,20.31,20.31,0,0,1-4.28-3.34,21.76,21.76,0,0,1-3.3-4.3,21.33,21.33,0,0,1-2.87-10.75,21.1,21.1,0,0,1,.75-5.65,21.1,21.1,0,0,1,5.42-9.35,21.29,21.29,0,0,1,4.28-3.33,20.94,20.94,0,0,1,5.07-2.14,21.31,21.31,0,0,1,5.67-.75A20.68,20.68,0,0,1,161.17,9.11Zm-14.95,3.82a17.08,17.08,0,0,0-5.42,3.65A17.57,17.57,0,0,0,137.16,22a16.68,16.68,0,0,0-1.34,6.66,16.86,16.86,0,0,0,1.34,6.71,17,17,0,0,0,9.06,9.1,17.52,17.52,0,0,0,13.39,0A17.44,17.44,0,0,0,165,40.81a17.15,17.15,0,0,0,3.66-5.44A16.86,16.86,0,0,0,170,28.66,16.68,16.68,0,0,0,168.7,22a17.09,17.09,0,0,0-9.09-9.07,17.39,17.39,0,0,0-13.39,0Z"/><path class="cls-2" d="M205.2,19.68a11.68,11.68,0,0,1-.73,4.17,11.54,11.54,0,0,1-2,3.46,12.25,12.25,0,0,1-3.1,2.56,12.07,12.07,0,0,1-3.92,1.44l9.47,15.15a2,2,0,0,1,.16,1.66A2,2,0,0,1,204,49.3a1.89,1.89,0,0,1-1.52.14,2.05,2.05,0,0,1-1.19-1L190.84,31.54H184v16a1.9,1.9,0,0,1-.61,1.44,2.08,2.08,0,0,1-2.9,0,1.9,1.9,0,0,1-.61-1.44V9.76a1.88,1.88,0,0,1,.61-1.45,2,2,0,0,1,1.45-.58h11a12.7,12.7,0,0,1,4.83.92,12.25,12.25,0,0,1,3.92,2.51,11.69,11.69,0,0,1,3.59,8.52ZM184,11.78V27.42h8.94a8.19,8.19,0,0,0,5.86-2.35,8,8,0,0,0,1.72-2.5,7.63,7.63,0,0,0,0-6.07A7.55,7.55,0,0,0,198.72,14a8,8,0,0,0-2.61-1.65,8.66,8.66,0,0,0-3.28-.61Z"/><path class="cls-2" d="M213.4,28.66a16.68,16.68,0,0,0,1.34,6.71,17,17,0,0,0,9.06,9.1,16.81,16.81,0,0,0,6.71,1.33,17.24,17.24,0,0,0,5.38-.81,14.44,14.44,0,0,0,4.43-2.34A13.9,13.9,0,0,0,243.58,39a16.18,16.18,0,0,0,1.95-4.79H235.47a1.93,1.93,0,0,1-1.44-.6,2,2,0,0,1-.59-1.45,2,2,0,0,1,.59-1.42,1.9,1.9,0,0,1,1.44-.61h12.37a2.4,2.4,0,0,1,1.55.59,1.76,1.76,0,0,1,.61,1.47,19.84,19.84,0,0,1-2,7,19,19,0,0,1-10.18,9.37A19.87,19.87,0,0,1,230.47,50a21.23,21.23,0,0,1-5.66-.75,20.62,20.62,0,0,1-5.08-2.14,21.11,21.11,0,0,1-7.57-7.64A21.74,21.74,0,0,1,210,34.34a21,21,0,0,1-.75-5.64A21.5,21.5,0,0,1,212.11,18a21.22,21.22,0,0,1,7.56-7.69,20.92,20.92,0,0,1,10.77-2.94,20.94,20.94,0,0,1,15.15,6.33,1.87,1.87,0,0,1,.64,1.44,2.08,2.08,0,0,1-.61,1.44,2,2,0,0,1-1.43.6,2,2,0,0,1-1.47-.6A17.2,17.2,0,0,0,237,12.83a17.4,17.4,0,0,0-6.52-1.28,16.78,16.78,0,0,0-6.56,1.31,17.07,17.07,0,0,0-5.44,3.61,17.32,17.32,0,0,0-3.7,5.43A16.61,16.61,0,0,0,213.4,28.66Z"/><path class="cls-1" d="M70.14,32.35h0a5.07,5.07,0,0,0,4.67-7l-4.68-11-4.66,11A5.07,5.07,0,0,0,70.14,32.35Z"/><rect class="cls-2" x="109.19" y="27.18" width="18.83" height="4.67" rx="2.15"/></svg>