<?xml version="1.0" encoding="UTF-8"?>
<svg xmlns="http://www.w3.org/2000/svg" xmlns:xlink="http://www.w3.org/1999/xlink" width="138pt" height="38pt" viewBox="0 0 138 38" version="1.1">
<g id="surface1">
<path style=" stroke:none;fill-rule:nonzero;fill:rgb(94.902039%,60.00061%,3.137207%);fill-opacity:1;" d="M 39.648438 28.035156 C 39.613281 27.953125 39.613281 27.875 39.644531 27.800781 C 39.679688 27.722656 39.738281 27.667969 39.820312 27.636719 C 39.894531 27.601562 39.96875 27.601562 40.046875 27.632812 C 40.125 27.664062 40.183594 27.71875 40.21875 27.800781 L 42.363281 32.777344 L 43.378906 30.441406 L 42.339844 28.035156 C 42.304688 27.953125 42.300781 27.875 42.335938 27.800781 C 42.367188 27.722656 42.425781 27.667969 42.503906 27.636719 C 42.578125 27.601562 42.65625 27.601562 42.738281 27.632812 C 42.816406 27.664062 42.875 27.71875 42.910156 27.800781 L 43.710938 29.667969 L 44.519531 27.800781 C 44.554688 27.722656 44.609375 27.667969 44.6875 27.636719 C 44.765625 27.601562 44.839844 27.601562 44.917969 27.636719 C 44.996094 27.667969 45.054688 27.722656 45.085938 27.800781 C 45.121094 27.875 45.121094 27.953125 45.085938 28.035156 L 44.046875 30.4375 L 45.050781 32.777344 L 47.210938 27.800781 C 47.246094 27.722656 47.300781 27.667969 47.375 27.636719 C 47.449219 27.601562 47.527344 27.601562 47.609375 27.636719 C 47.6875 27.667969 47.742188 27.722656 47.777344 27.800781 C 47.808594 27.875 47.808594 27.953125 47.769531 28.035156 L 45.34375 33.65625 C 45.316406 33.722656 45.273438 33.769531 45.21875 33.804688 C 45.160156 33.835938 45.101562 33.847656 45.039062 33.847656 C 44.984375 33.847656 44.933594 33.832031 44.878906 33.796875 C 44.828125 33.765625 44.789062 33.71875 44.761719 33.65625 L 43.710938 31.214844 L 42.65625 33.65625 C 42.628906 33.71875 42.589844 33.765625 42.539062 33.796875 C 42.488281 33.832031 42.433594 33.847656 42.375 33.847656 C 42.308594 33.847656 42.25 33.835938 42.191406 33.804688 C 42.136719 33.769531 42.097656 33.722656 42.070312 33.65625 Z M 39.648438 28.035156 "/>
<path style=" stroke:none;fill-rule:nonzero;fill:rgb(94.902039%,60.00061%,3.137207%);fill-opacity:1;" d="M 48.039062 31.585938 C 48.039062 31.816406 48.082031 32.039062 48.171875 32.246094 C 48.261719 32.449219 48.382812 32.632812 48.535156 32.785156 C 48.6875 32.941406 48.867188 33.0625 49.078125 33.152344 C 49.285156 33.246094 49.511719 33.289062 49.75 33.289062 C 49.992188 33.289062 50.214844 33.246094 50.421875 33.152344 C 50.632812 33.0625 50.8125 32.941406 50.964844 32.785156 C 51.117188 32.632812 51.238281 32.449219 51.324219 32.246094 C 51.414062 32.039062 51.457031 31.816406 51.457031 31.585938 C 51.457031 31.347656 51.414062 31.125 51.324219 30.917969 C 51.238281 30.710938 51.117188 30.527344 50.964844 30.371094 C 50.8125 30.21875 50.632812 30.097656 50.421875 30.007812 C 50.214844 29.917969 49.992188 29.871094 49.75 29.871094 C 49.511719 29.871094 49.289062 29.917969 49.082031 30.007812 C 48.875 30.097656 48.691406 30.21875 48.539062 30.371094 C 48.382812 30.527344 48.261719 30.710938 48.171875 30.917969 C 48.082031 31.125 48.039062 31.347656 48.039062 31.585938 M 47.425781 31.585938 C 47.425781 31.261719 47.484375 30.960938 47.609375 30.675781 C 47.730469 30.390625 47.894531 30.144531 48.105469 29.933594 C 48.320312 29.726562 48.566406 29.558594 48.847656 29.4375 C 49.132812 29.3125 49.433594 29.253906 49.75 29.253906 C 50.070312 29.253906 50.367188 29.3125 50.648438 29.433594 C 50.925781 29.554688 51.171875 29.71875 51.382812 29.925781 C 51.589844 30.132812 51.757812 30.375 51.878906 30.652344 C 52 30.933594 52.0625 31.230469 52.070312 31.550781 L 52.070312 33.527344 C 52.070312 33.617188 52.042969 33.691406 51.980469 33.753906 C 51.921875 33.816406 51.847656 33.847656 51.757812 33.847656 C 51.671875 33.847656 51.597656 33.816406 51.542969 33.753906 C 51.484375 33.691406 51.457031 33.617188 51.457031 33.527344 L 51.453125 33.109375 C 51.238281 33.347656 50.984375 33.539062 50.695312 33.6875 C 50.402344 33.832031 50.089844 33.90625 49.75 33.90625 C 49.433594 33.90625 49.132812 33.84375 48.847656 33.722656 C 48.566406 33.601562 48.320312 33.433594 48.105469 33.226562 C 47.894531 33.015625 47.730469 32.769531 47.609375 32.484375 C 47.484375 32.203125 47.425781 31.902344 47.425781 31.585938 "/>
<path style=" stroke:none;fill-rule:nonzero;fill:rgb(94.902039%,60.00061%,3.137207%);fill-opacity:1;" d="M 54.722656 32.824219 L 56.207031 29.445312 C 56.242188 29.367188 56.296875 29.308594 56.375 29.273438 C 56.453125 29.242188 56.53125 29.242188 56.609375 29.277344 C 56.691406 29.3125 56.746094 29.371094 56.777344 29.449219 C 56.804688 29.527344 56.800781 29.609375 56.765625 29.691406 L 54.996094 33.675781 L 54.980469 33.714844 L 54.253906 35.351562 C 54.21875 35.433594 54.160156 35.488281 54.082031 35.519531 C 54.003906 35.550781 53.921875 35.550781 53.839844 35.511719 C 53.761719 35.476562 53.714844 35.421875 53.695312 35.347656 C 53.675781 35.273438 53.683594 35.195312 53.71875 35.109375 L 54.394531 33.558594 L 52.691406 29.6875 C 52.652344 29.605469 52.652344 29.527344 52.683594 29.449219 C 52.714844 29.371094 52.769531 29.3125 52.847656 29.277344 C 52.925781 29.242188 53.003906 29.242188 53.082031 29.273438 C 53.15625 29.304688 53.214844 29.363281 53.25 29.445312 Z M 54.722656 32.824219 "/>
<path style=" stroke:none;fill-rule:nonzero;fill:rgb(94.902039%,60.00061%,3.137207%);fill-opacity:1;" d="M 60.621094 29.257812 L 61.269531 29.257812 C 61.359375 29.257812 61.429688 29.289062 61.488281 29.347656 C 61.546875 29.40625 61.578125 29.476562 61.578125 29.5625 C 61.578125 29.652344 61.546875 29.726562 61.488281 29.785156 C 61.429688 29.84375 61.359375 29.871094 61.269531 29.871094 L 60.621094 29.871094 L 60.621094 33.542969 C 60.621094 33.628906 60.59375 33.699219 60.53125 33.757812 C 60.472656 33.816406 60.398438 33.847656 60.316406 33.847656 C 60.230469 33.847656 60.160156 33.816406 60.101562 33.757812 C 60.042969 33.699219 60.011719 33.628906 60.011719 33.542969 L 60.011719 29.871094 L 59.476562 29.871094 C 59.390625 29.871094 59.320312 29.84375 59.261719 29.78125 C 59.199219 29.722656 59.167969 29.648438 59.167969 29.5625 C 59.167969 29.476562 59.199219 29.40625 59.261719 29.347656 C 59.320312 29.289062 59.390625 29.257812 59.476562 29.257812 L 60.011719 29.257812 L 60.011719 27.90625 C 60.011719 27.820312 60.042969 27.746094 60.101562 27.691406 C 60.160156 27.636719 60.230469 27.605469 60.316406 27.605469 C 60.398438 27.605469 60.472656 27.636719 60.53125 27.691406 C 60.59375 27.746094 60.621094 27.820312 60.621094 27.90625 Z M 60.621094 29.257812 "/>
<path style=" stroke:none;fill-rule:nonzero;fill:rgb(94.902039%,60.00061%,3.137207%);fill-opacity:1;" d="M 62.566406 32.246094 C 62.65625 32.449219 62.777344 32.632812 62.929688 32.785156 C 63.082031 32.941406 63.261719 33.0625 63.46875 33.152344 C 63.675781 33.246094 63.902344 33.292969 64.140625 33.292969 C 64.382812 33.292969 64.605469 33.246094 64.816406 33.152344 C 65.023438 33.0625 65.203125 32.941406 65.359375 32.785156 C 65.511719 32.632812 65.632812 32.449219 65.722656 32.246094 C 65.808594 32.039062 65.851562 31.816406 65.851562 31.585938 C 65.851562 31.347656 65.808594 31.125 65.722656 30.917969 C 65.632812 30.710938 65.511719 30.527344 65.359375 30.375 C 65.203125 30.21875 65.023438 30.097656 64.816406 30.007812 C 64.605469 29.917969 64.382812 29.875 64.140625 29.875 C 63.90625 29.875 63.683594 29.917969 63.472656 30.007812 C 63.265625 30.097656 63.085938 30.21875 62.929688 30.375 C 62.777344 30.527344 62.65625 30.710938 62.566406 30.917969 C 62.476562 31.125 62.429688 31.347656 62.429688 31.585938 C 62.429688 31.816406 62.476562 32.039062 62.566406 32.246094 M 62 30.675781 C 62.121094 30.390625 62.289062 30.144531 62.5 29.933594 C 62.710938 29.722656 62.957031 29.558594 63.242188 29.4375 C 63.523438 29.3125 63.824219 29.253906 64.140625 29.253906 C 64.464844 29.253906 64.765625 29.3125 65.046875 29.4375 C 65.328125 29.558594 65.574219 29.722656 65.785156 29.933594 C 65.992188 30.144531 66.160156 30.390625 66.28125 30.675781 C 66.402344 30.960938 66.464844 31.261719 66.464844 31.585938 C 66.464844 31.902344 66.402344 32.203125 66.28125 32.484375 C 66.160156 32.769531 65.992188 33.015625 65.785156 33.226562 C 65.574219 33.433594 65.328125 33.601562 65.046875 33.722656 C 64.765625 33.84375 64.464844 33.90625 64.140625 33.90625 C 63.824219 33.90625 63.523438 33.84375 63.242188 33.722656 C 62.957031 33.601562 62.710938 33.433594 62.5 33.226562 C 62.289062 33.015625 62.121094 32.769531 62 32.484375 C 61.878906 32.203125 61.816406 31.902344 61.816406 31.585938 C 61.816406 31.261719 61.878906 30.960938 62 30.675781 "/>
<path style=" stroke:none;fill-rule:nonzero;fill:rgb(94.902039%,60.00061%,3.137207%);fill-opacity:1;" d="M 69.832031 32.246094 C 69.917969 32.449219 70.039062 32.632812 70.191406 32.785156 C 70.347656 32.941406 70.527344 33.0625 70.734375 33.152344 C 70.941406 33.246094 71.167969 33.292969 71.40625 33.292969 C 71.648438 33.292969 71.871094 33.246094 72.082031 33.152344 C 72.289062 33.0625 72.46875 32.941406 72.625 32.785156 C 72.777344 32.632812 72.898438 32.449219 72.984375 32.246094 C 73.074219 32.039062 73.117188 31.816406 73.117188 31.585938 C 73.117188 31.347656 73.074219 31.125 72.984375 30.917969 C 72.898438 30.710938 72.777344 30.527344 72.625 30.375 C 72.46875 30.21875 72.289062 30.097656 72.082031 30.007812 C 71.871094 29.917969 71.648438 29.875 71.40625 29.875 C 71.171875 29.875 70.945312 29.917969 70.738281 30.007812 C 70.53125 30.097656 70.351562 30.21875 70.195312 30.375 C 70.042969 30.527344 69.917969 30.710938 69.832031 30.917969 C 69.738281 31.125 69.695312 31.347656 69.695312 31.585938 C 69.695312 31.816406 69.738281 32.039062 69.832031 32.246094 M 69.265625 30.675781 C 69.386719 30.390625 69.554688 30.144531 69.765625 29.933594 C 69.976562 29.722656 70.222656 29.558594 70.503906 29.4375 C 70.789062 29.3125 71.089844 29.253906 71.40625 29.253906 C 71.726562 29.253906 72.03125 29.3125 72.3125 29.4375 C 72.59375 29.558594 72.839844 29.722656 73.046875 29.933594 C 73.257812 30.144531 73.425781 30.390625 73.546875 30.675781 C 73.667969 30.960938 73.726562 31.261719 73.726562 31.585938 C 73.726562 31.902344 73.667969 32.203125 73.546875 32.484375 C 73.425781 32.769531 73.257812 33.015625 73.046875 33.226562 C 72.839844 33.433594 72.59375 33.601562 72.3125 33.722656 C 72.03125 33.84375 71.726562 33.90625 71.40625 33.90625 C 71.089844 33.90625 70.789062 33.84375 70.503906 33.722656 C 70.222656 33.601562 69.976562 33.433594 69.765625 33.226562 C 69.554688 33.015625 69.386719 32.769531 69.265625 32.484375 C 69.140625 32.203125 69.082031 31.902344 69.082031 31.585938 C 69.082031 31.261719 69.140625 30.960938 69.265625 30.675781 "/>
<path style=" stroke:none;fill-rule:nonzero;fill:rgb(94.902039%,60.00061%,3.137207%);fill-opacity:1;" d="M 75.042969 30.070312 C 75.265625 29.820312 75.53125 29.621094 75.839844 29.472656 C 76.148438 29.328125 76.480469 29.253906 76.839844 29.253906 L 76.875 29.253906 C 76.980469 29.253906 77.0625 29.28125 77.117188 29.339844 C 77.171875 29.394531 77.199219 29.46875 77.199219 29.554688 C 77.199219 29.648438 77.167969 29.722656 77.105469 29.777344 C 77.042969 29.835938 76.96875 29.863281 76.875 29.863281 L 76.839844 29.863281 C 76.59375 29.863281 76.363281 29.910156 76.144531 30.003906 C 75.929688 30.097656 75.738281 30.226562 75.574219 30.390625 C 75.414062 30.554688 75.285156 30.75 75.1875 30.96875 C 75.09375 31.191406 75.042969 31.429688 75.042969 31.679688 L 75.042969 33.535156 C 75.042969 33.621094 75.015625 33.695312 74.957031 33.757812 C 74.898438 33.816406 74.824219 33.847656 74.742188 33.847656 C 74.65625 33.847656 74.582031 33.816406 74.523438 33.757812 C 74.460938 33.695312 74.429688 33.621094 74.429688 33.535156 L 74.429688 29.5625 C 74.429688 29.476562 74.460938 29.40625 74.523438 29.34375 C 74.582031 29.285156 74.65625 29.253906 74.742188 29.253906 C 74.828125 29.253906 74.902344 29.285156 74.957031 29.34375 C 75.015625 29.40625 75.042969 29.476562 75.042969 29.5625 Z M 75.042969 30.070312 "/>
<path style=" stroke:none;fill-rule:nonzero;fill:rgb(94.902039%,60.00061%,3.137207%);fill-opacity:1;" d="M 77.871094 31.585938 C 77.871094 31.816406 77.917969 32.039062 78.007812 32.246094 C 78.097656 32.449219 78.21875 32.632812 78.367188 32.785156 C 78.519531 32.941406 78.703125 33.0625 78.910156 33.152344 C 79.117188 33.246094 79.34375 33.289062 79.582031 33.289062 C 79.824219 33.289062 80.046875 33.246094 80.257812 33.152344 C 80.464844 33.0625 80.644531 32.941406 80.796875 32.785156 C 80.949219 32.632812 81.070312 32.449219 81.15625 32.246094 C 81.246094 32.039062 81.289062 31.816406 81.289062 31.585938 C 81.289062 31.347656 81.246094 31.125 81.15625 30.917969 C 81.070312 30.710938 80.949219 30.527344 80.796875 30.371094 C 80.644531 30.21875 80.464844 30.097656 80.257812 30.007812 C 80.046875 29.917969 79.824219 29.871094 79.582031 29.871094 C 79.347656 29.871094 79.125 29.917969 78.917969 30.007812 C 78.707031 30.097656 78.527344 30.21875 78.371094 30.371094 C 78.21875 30.527344 78.097656 30.710938 78.007812 30.917969 C 77.917969 31.125 77.871094 31.347656 77.871094 31.585938 M 81.902344 33.304688 L 81.902344 33.335938 C 81.902344 33.679688 81.839844 33.996094 81.71875 34.28125 C 81.59375 34.570312 81.429688 34.816406 81.222656 35.023438 C 81.015625 35.230469 80.769531 35.390625 80.488281 35.503906 C 80.210938 35.617188 79.914062 35.675781 79.597656 35.675781 C 79.300781 35.675781 79.015625 35.621094 78.738281 35.515625 C 78.464844 35.40625 78.226562 35.257812 78.03125 35.0625 C 77.957031 34.984375 77.921875 34.902344 77.921875 34.8125 C 77.921875 34.726562 77.957031 34.648438 78.023438 34.589844 C 78.070312 34.546875 78.117188 34.519531 78.160156 34.511719 C 78.207031 34.5 78.25 34.5 78.289062 34.511719 C 78.328125 34.519531 78.367188 34.535156 78.402344 34.558594 C 78.4375 34.582031 78.472656 34.605469 78.507812 34.632812 C 78.671875 34.777344 78.851562 34.886719 79.042969 34.953125 C 79.234375 35.023438 79.4375 35.054688 79.652344 35.050781 C 79.878906 35.046875 80.09375 35.003906 80.292969 34.914062 C 80.492188 34.824219 80.667969 34.703125 80.8125 34.550781 C 80.960938 34.398438 81.078125 34.214844 81.164062 34.003906 C 81.246094 33.792969 81.289062 33.558594 81.289062 33.304688 L 81.289062 33.160156 C 81.074219 33.390625 80.820312 33.570312 80.53125 33.703125 C 80.238281 33.839844 79.925781 33.90625 79.582031 33.90625 C 79.265625 33.90625 78.964844 33.84375 78.683594 33.722656 C 78.398438 33.601562 78.152344 33.433594 77.941406 33.226562 C 77.730469 33.015625 77.5625 32.769531 77.441406 32.484375 C 77.316406 32.203125 77.257812 31.902344 77.257812 31.585938 C 77.257812 31.261719 77.316406 30.960938 77.441406 30.675781 C 77.5625 30.390625 77.730469 30.144531 77.941406 29.933594 C 78.152344 29.726562 78.398438 29.558594 78.683594 29.4375 C 78.964844 29.3125 79.265625 29.253906 79.582031 29.253906 C 79.925781 29.253906 80.238281 29.320312 80.53125 29.453125 C 80.820312 29.585938 81.074219 29.769531 81.289062 30.003906 L 81.289062 29.554688 C 81.289062 29.46875 81.320312 29.394531 81.378906 29.339844 C 81.441406 29.28125 81.511719 29.253906 81.597656 29.253906 C 81.683594 29.253906 81.753906 29.28125 81.8125 29.339844 C 81.875 29.394531 81.902344 29.46875 81.902344 29.554688 Z M 81.902344 33.304688 "/>
<path style=" stroke:none;fill-rule:nonzero;fill:rgb(94.902039%,60.00061%,3.137207%);fill-opacity:1;" d="M 83.21875 31.585938 C 83.21875 31.816406 83.265625 32.039062 83.355469 32.246094 C 83.445312 32.449219 83.566406 32.632812 83.71875 32.785156 C 83.871094 32.941406 84.050781 33.0625 84.257812 33.152344 C 84.464844 33.246094 84.691406 33.289062 84.933594 33.289062 C 85.171875 33.289062 85.398438 33.246094 85.605469 33.152344 C 85.8125 33.0625 85.992188 32.941406 86.144531 32.785156 C 86.296875 32.632812 86.417969 32.449219 86.507812 32.246094 C 86.59375 32.039062 86.640625 31.816406 86.640625 31.585938 C 86.640625 31.347656 86.59375 31.125 86.507812 30.917969 C 86.417969 30.710938 86.296875 30.527344 86.144531 30.371094 C 85.992188 30.21875 85.8125 30.097656 85.605469 30.007812 C 85.398438 29.917969 85.171875 29.871094 84.933594 29.871094 C 84.695312 29.871094 84.472656 29.917969 84.265625 30.007812 C 84.054688 30.097656 83.875 30.21875 83.71875 30.371094 C 83.566406 30.527344 83.445312 30.710938 83.355469 30.917969 C 83.265625 31.125 83.21875 31.347656 83.21875 31.585938 M 82.605469 31.585938 C 82.605469 31.261719 82.667969 30.960938 82.789062 30.675781 C 82.910156 30.390625 83.078125 30.144531 83.289062 29.933594 C 83.5 29.726562 83.746094 29.558594 84.03125 29.4375 C 84.3125 29.3125 84.613281 29.253906 84.933594 29.253906 C 85.25 29.253906 85.546875 29.3125 85.828125 29.433594 C 86.109375 29.554688 86.351562 29.71875 86.5625 29.925781 C 86.773438 30.132812 86.9375 30.375 87.058594 30.652344 C 87.183594 30.933594 87.246094 31.230469 87.253906 31.550781 L 87.253906 33.527344 C 87.253906 33.617188 87.222656 33.691406 87.160156 33.753906 C 87.101562 33.816406 87.027344 33.847656 86.941406 33.847656 C 86.851562 33.847656 86.78125 33.816406 86.722656 33.753906 C 86.664062 33.691406 86.640625 33.617188 86.640625 33.527344 L 86.632812 33.109375 C 86.417969 33.347656 86.164062 33.539062 85.875 33.6875 C 85.582031 33.832031 85.269531 33.90625 84.933594 33.90625 C 84.613281 33.90625 84.3125 33.84375 84.03125 33.722656 C 83.746094 33.601562 83.5 33.433594 83.289062 33.226562 C 83.078125 33.015625 82.910156 32.769531 82.789062 32.484375 C 82.667969 32.203125 82.605469 31.902344 82.605469 31.585938 "/>
<path style=" stroke:none;fill-rule:nonzero;fill:rgb(94.902039%,60.00061%,3.137207%);fill-opacity:1;" d="M 92.207031 33.542969 C 92.207031 33.632812 92.175781 33.703125 92.117188 33.765625 C 92.058594 33.820312 91.984375 33.851562 91.898438 33.851562 C 91.8125 33.851562 91.742188 33.820312 91.683594 33.765625 C 91.625 33.703125 91.597656 33.632812 91.597656 33.542969 L 91.597656 31.480469 C 91.589844 30.960938 91.472656 30.5625 91.246094 30.285156 C 91.019531 30.007812 90.707031 29.867188 90.300781 29.867188 C 90.101562 29.867188 89.914062 29.90625 89.742188 29.984375 C 89.566406 30.0625 89.414062 30.171875 89.28125 30.308594 C 89.152344 30.445312 89.046875 30.609375 88.96875 30.800781 C 88.890625 30.988281 88.847656 31.191406 88.84375 31.410156 L 88.84375 33.535156 C 88.84375 33.621094 88.8125 33.695312 88.753906 33.757812 C 88.691406 33.816406 88.617188 33.847656 88.535156 33.847656 C 88.449219 33.847656 88.378906 33.816406 88.316406 33.757812 C 88.257812 33.695312 88.226562 33.621094 88.226562 33.535156 L 88.226562 29.5625 C 88.226562 29.476562 88.257812 29.402344 88.320312 29.34375 C 88.382812 29.285156 88.457031 29.253906 88.539062 29.253906 C 88.625 29.253906 88.695312 29.285156 88.753906 29.34375 C 88.8125 29.402344 88.84375 29.476562 88.84375 29.5625 L 88.84375 30.082031 C 89.03125 29.835938 89.261719 29.636719 89.519531 29.484375 C 89.78125 29.332031 90.0625 29.257812 90.363281 29.257812 C 90.644531 29.257812 90.894531 29.3125 91.121094 29.414062 C 91.347656 29.519531 91.539062 29.667969 91.699219 29.859375 C 91.859375 30.054688 91.984375 30.289062 92.070312 30.5625 C 92.15625 30.839844 92.203125 31.144531 92.207031 31.480469 Z M 92.207031 33.542969 "/>
<path style=" stroke:none;fill-rule:nonzero;fill:rgb(94.902039%,60.00061%,3.137207%);fill-opacity:1;" d="M 93.75 33.535156 C 93.75 33.621094 93.722656 33.695312 93.660156 33.757812 C 93.601562 33.816406 93.527344 33.847656 93.441406 33.847656 C 93.359375 33.847656 93.285156 33.816406 93.226562 33.757812 C 93.167969 33.695312 93.136719 33.621094 93.136719 33.535156 L 93.136719 29.5625 C 93.136719 29.476562 93.167969 29.402344 93.230469 29.34375 C 93.289062 29.285156 93.363281 29.253906 93.449219 29.253906 C 93.53125 29.253906 93.605469 29.285156 93.664062 29.34375 C 93.722656 29.402344 93.75 29.476562 93.75 29.5625 Z M 93.179688 27.9375 C 93.253906 27.867188 93.339844 27.832031 93.4375 27.832031 C 93.542969 27.832031 93.632812 27.867188 93.707031 27.9375 C 93.78125 28.007812 93.820312 28.097656 93.820312 28.207031 C 93.820312 28.304688 93.78125 28.390625 93.707031 28.460938 C 93.632812 28.535156 93.542969 28.570312 93.4375 28.570312 C 93.339844 28.570312 93.253906 28.535156 93.179688 28.460938 C 93.109375 28.390625 93.074219 28.304688 93.074219 28.207031 C 93.074219 28.097656 93.109375 28.007812 93.179688 27.9375 "/>
<path style=" stroke:none;fill-rule:nonzero;fill:rgb(94.902039%,60.00061%,3.137207%);fill-opacity:1;" d="M 95.066406 31.558594 L 95.054688 31.582031 C 95.054688 31.582031 95.058594 31.582031 95.058594 31.582031 C 95.0625 31.582031 95.0625 31.585938 95.0625 31.589844 C 95.0625 31.59375 95.0625 31.59375 95.066406 31.59375 C 95.066406 31.816406 95.109375 32.027344 95.191406 32.230469 C 95.273438 32.429688 95.386719 32.609375 95.535156 32.761719 C 95.679688 32.914062 95.855469 33.039062 96.054688 33.132812 C 96.253906 33.230469 96.46875 33.277344 96.707031 33.277344 C 96.921875 33.28125 97.125 33.25 97.3125 33.183594 C 97.507812 33.121094 97.683594 33.011719 97.851562 32.863281 C 97.882812 32.835938 97.917969 32.8125 97.953125 32.789062 C 97.988281 32.765625 98.027344 32.75 98.070312 32.742188 C 98.109375 32.730469 98.152344 32.730469 98.199219 32.742188 C 98.242188 32.75 98.289062 32.777344 98.339844 32.820312 C 98.402344 32.875 98.433594 32.949219 98.433594 33.039062 C 98.433594 33.128906 98.398438 33.210938 98.324219 33.285156 C 98.128906 33.480469 97.894531 33.632812 97.617188 33.738281 C 97.339844 33.847656 97.054688 33.902344 96.757812 33.902344 C 96.441406 33.902344 96.140625 33.839844 95.859375 33.722656 C 95.578125 33.605469 95.332031 33.441406 95.125 33.234375 C 94.914062 33.027344 94.75 32.785156 94.625 32.503906 C 94.503906 32.226562 94.441406 31.925781 94.441406 31.609375 L 94.453125 31.582031 C 94.445312 31.574219 94.441406 31.566406 94.441406 31.558594 C 94.441406 31.242188 94.503906 30.941406 94.625 30.660156 C 94.75 30.378906 94.914062 30.132812 95.125 29.921875 C 95.332031 29.714844 95.578125 29.546875 95.859375 29.425781 C 96.140625 29.304688 96.441406 29.246094 96.757812 29.246094 C 97.054688 29.246094 97.339844 29.296875 97.617188 29.40625 C 97.894531 29.511719 98.128906 29.664062 98.324219 29.859375 C 98.398438 29.933594 98.433594 30.015625 98.433594 30.105469 C 98.433594 30.195312 98.402344 30.269531 98.335938 30.332031 C 98.285156 30.375 98.238281 30.398438 98.195312 30.410156 C 98.152344 30.417969 98.109375 30.417969 98.070312 30.410156 C 98.027344 30.398438 97.988281 30.382812 97.953125 30.359375 C 97.917969 30.335938 97.882812 30.3125 97.851562 30.289062 C 97.683594 30.140625 97.507812 30.035156 97.3125 29.964844 C 97.125 29.898438 96.921875 29.867188 96.707031 29.867188 C 96.472656 29.871094 96.257812 29.917969 96.0625 30.011719 C 95.863281 30.105469 95.691406 30.230469 95.542969 30.382812 C 95.394531 30.539062 95.277344 30.71875 95.195312 30.921875 C 95.109375 31.125 95.066406 31.339844 95.066406 31.558594 "/>
<path style=" stroke:none;fill-rule:nonzero;fill:rgb(1.960754%,34.901428%,29.803467%);fill-opacity:1;" d="M 3.640625 4.292969 C 3.511719 4.007812 3.507812 3.726562 3.628906 3.457031 C 3.75 3.1875 3.953125 2.992188 4.242188 2.878906 C 4.507812 2.765625 4.777344 2.761719 5.054688 2.871094 C 5.328125 2.980469 5.53125 3.179688 5.65625 3.464844 L 13.25 21.085938 L 16.839844 12.820312 L 13.164062 4.292969 C 13.039062 4.007812 13.03125 3.726562 13.148438 3.457031 C 13.261719 3.1875 13.464844 2.992188 13.75 2.878906 C 14.015625 2.765625 14.289062 2.761719 14.570312 2.871094 C 14.855469 2.980469 15.058594 3.179688 15.183594 3.464844 L 18.015625 10.074219 L 20.878906 3.464844 C 21.003906 3.1875 21.203125 2.992188 21.476562 2.878906 C 21.746094 2.765625 22.019531 2.765625 22.292969 2.878906 C 22.570312 2.992188 22.769531 3.1875 22.890625 3.457031 C 23.011719 3.726562 23.007812 4.007812 22.882812 4.292969 L 19.203125 12.800781 L 22.761719 21.085938 L 30.40625 3.464844 C 30.53125 3.1875 30.726562 2.992188 30.992188 2.878906 C 31.257812 2.765625 31.535156 2.765625 31.820312 2.878906 C 32.097656 2.992188 32.292969 3.1875 32.40625 3.457031 C 32.523438 3.726562 32.515625 4.007812 32.390625 4.292969 L 23.796875 24.191406 C 23.703125 24.421875 23.558594 24.59375 23.355469 24.710938 C 23.15625 24.824219 22.945312 24.875 22.726562 24.863281 C 22.53125 24.863281 22.339844 24.808594 22.15625 24.691406 C 21.972656 24.578125 21.832031 24.410156 21.742188 24.191406 L 18.015625 15.546875 L 14.285156 24.191406 C 14.195312 24.410156 14.058594 24.578125 13.871094 24.691406 C 13.6875 24.808594 13.492188 24.863281 13.285156 24.863281 C 13.054688 24.875 12.84375 24.824219 12.648438 24.710938 C 12.453125 24.59375 12.308594 24.421875 12.214844 24.191406 Z M 3.640625 4.292969 "/>
<path style=" stroke:none;fill-rule:nonzero;fill:rgb(1.960754%,34.901428%,29.803467%);fill-opacity:1;" d="M 39.558594 15.785156 C 41.476562 15.785156 42.773438 13.828125 42.023438 12.058594 L 39.554688 6.242188 L 37.089844 12.0625 C 36.34375 13.832031 37.640625 15.785156 39.558594 15.785156 M 44.523438 17.960938 L 34.601562 17.960938 L 31.960938 24.210938 C 31.832031 24.496094 31.632812 24.695312 31.355469 24.804688 C 31.078125 24.914062 30.792969 24.90625 30.492188 24.777344 C 30.203125 24.652344 30.019531 24.449219 29.933594 24.175781 C 29.84375 23.898438 29.863281 23.621094 29.992188 23.347656 L 38.601562 3.429688 C 38.800781 2.992188 39.132812 2.773438 39.605469 2.773438 C 39.824219 2.773438 40.019531 2.832031 40.191406 2.945312 C 40.363281 3.0625 40.496094 3.222656 40.589844 3.429688 L 49.148438 23.347656 C 49.273438 23.632812 49.296875 23.914062 49.207031 24.183594 C 49.121094 24.453125 48.941406 24.652344 48.664062 24.777344 C 48.390625 24.90625 48.105469 24.914062 47.820312 24.804688 C 47.53125 24.695312 47.324219 24.503906 47.199219 24.226562 Z M 44.523438 17.960938 "/>
<path style=" stroke:none;fill-rule:nonzero;fill:rgb(1.960754%,34.901428%,29.803467%);fill-opacity:1;" d="M 54.808594 12.765625 L 61.261719 3.171875 C 61.457031 2.941406 61.695312 2.816406 61.96875 2.800781 C 62.246094 2.785156 62.5 2.867188 62.730469 3.050781 C 62.960938 3.222656 63.101562 3.453125 63.152344 3.742188 C 63.203125 4.027344 63.117188 4.324219 62.886719 4.621094 L 55.894531 14.890625 L 55.894531 23.796875 C 55.894531 24.09375 55.789062 24.347656 55.578125 24.554688 C 55.363281 24.761719 55.109375 24.863281 54.808594 24.863281 C 54.507812 24.863281 54.257812 24.761719 54.050781 24.554688 C 53.84375 24.347656 53.738281 24.09375 53.738281 23.796875 L 53.738281 14.90625 L 46.664062 4.640625 C 46.464844 4.410156 46.378906 4.144531 46.402344 3.84375 C 46.425781 3.546875 46.554688 3.292969 46.785156 3.085938 C 47.011719 2.890625 47.277344 2.800781 47.578125 2.816406 C 47.875 2.835938 48.125 2.964844 48.320312 3.207031 Z M 54.808594 12.765625 "/>
<path style=" stroke:none;fill-rule:nonzero;fill:rgb(1.960754%,34.901428%,29.803467%);fill-opacity:1;" d="M 79.773438 5.519531 C 78.671875 5.992188 77.71875 6.636719 76.90625 7.453125 C 76.09375 8.269531 75.453125 9.222656 74.984375 10.316406 C 74.511719 11.410156 74.273438 12.582031 74.273438 13.835938 C 74.273438 15.101562 74.511719 16.285156 74.984375 17.382812 C 75.453125 18.480469 76.09375 19.441406 76.90625 20.257812 C 77.71875 21.074219 78.671875 21.71875 79.773438 22.191406 C 80.871094 22.660156 82.050781 22.898438 83.320312 22.898438 C 84.570312 22.898438 85.75 22.660156 86.847656 22.191406 C 87.945312 21.71875 88.902344 21.074219 89.71875 20.257812 C 90.539062 19.441406 91.179688 18.480469 91.652344 17.382812 C 92.125 16.285156 92.363281 15.101562 92.363281 13.835938 C 92.363281 12.582031 92.125 11.410156 91.652344 10.316406 C 91.179688 9.222656 90.539062 8.269531 89.71875 7.453125 C 88.902344 6.636719 87.945312 5.992188 86.847656 5.519531 C 85.75 5.046875 84.570312 4.8125 83.320312 4.8125 C 82.050781 4.8125 80.871094 5.046875 79.773438 5.519531 M 87.675781 3.5 C 89.039062 4.085938 90.230469 4.890625 91.25 5.90625 C 92.265625 6.925781 93.070312 8.113281 93.664062 9.472656 C 94.257812 10.828125 94.550781 12.285156 94.550781 13.835938 C 94.550781 14.871094 94.417969 15.871094 94.148438 16.832031 C 93.875 17.792969 93.5 18.6875 93.015625 19.515625 C 92.535156 20.34375 91.945312 21.101562 91.253906 21.792969 C 90.566406 22.484375 89.804688 23.070312 88.976562 23.554688 C 88.152344 24.035156 87.253906 24.414062 86.292969 24.683594 C 85.332031 24.953125 84.335938 25.089844 83.300781 25.089844 C 82.265625 25.089844 81.265625 24.953125 80.304688 24.683594 C 79.34375 24.414062 78.453125 24.035156 77.625 23.554688 C 76.792969 23.070312 76.042969 22.484375 75.363281 21.792969 C 74.683594 21.101562 74.101562 20.34375 73.621094 19.515625 C 73.136719 18.6875 72.761719 17.792969 72.496094 16.832031 C 72.234375 15.871094 72.101562 14.871094 72.101562 13.835938 C 72.101562 12.800781 72.234375 11.808594 72.496094 10.851562 C 72.761719 9.898438 73.136719 9.003906 73.621094 8.175781 C 74.101562 7.347656 74.683594 6.59375 75.363281 5.90625 C 76.042969 5.222656 76.792969 4.636719 77.625 4.148438 C 78.453125 3.65625 79.34375 3.28125 80.304688 3.015625 C 81.265625 2.753906 82.265625 2.621094 83.300781 2.621094 C 84.855469 2.621094 86.3125 2.914062 87.675781 3.5 "/>
<path style=" stroke:none;fill-rule:nonzero;fill:rgb(1.960754%,34.901428%,29.803467%);fill-opacity:1;" d="M 99.714844 4.914062 L 99.714844 13.183594 L 104.441406 13.183594 C 105.0625 13.183594 105.636719 13.070312 106.167969 12.84375 C 106.695312 12.621094 107.152344 12.316406 107.539062 11.9375 C 107.925781 11.558594 108.226562 11.117188 108.445312 10.617188 C 108.664062 10.117188 108.773438 9.59375 108.773438 9.039062 C 108.773438 8.453125 108.660156 7.910156 108.4375 7.410156 C 108.210938 6.90625 107.90625 6.472656 107.523438 6.105469 C 107.136719 5.738281 106.675781 5.445312 106.140625 5.234375 C 105.605469 5.019531 105.027344 4.914062 104.40625 4.914062 Z M 110.945312 9.089844 C 110.945312 9.875 110.816406 10.605469 110.558594 11.292969 C 110.300781 11.976562 109.941406 12.585938 109.480469 13.121094 C 109.019531 13.65625 108.472656 14.105469 107.839844 14.476562 C 107.207031 14.84375 106.519531 15.097656 105.769531 15.234375 L 110.777344 23.242188 C 110.9375 23.542969 110.964844 23.835938 110.859375 24.121094 C 110.757812 24.410156 110.566406 24.617188 110.292969 24.742188 C 110.027344 24.882812 109.761719 24.90625 109.488281 24.820312 C 109.21875 24.734375 109.007812 24.566406 108.859375 24.3125 L 103.355469 15.355469 L 99.714844 15.355469 L 99.714844 23.796875 C 99.714844 24.09375 99.605469 24.347656 99.394531 24.554688 C 99.179688 24.761719 98.925781 24.863281 98.625 24.863281 C 98.324219 24.863281 98.070312 24.761719 97.859375 24.554688 C 97.644531 24.347656 97.539062 24.09375 97.539062 23.796875 L 97.539062 3.84375 C 97.539062 3.535156 97.644531 3.277344 97.859375 3.078125 C 98.070312 2.875 98.324219 2.773438 98.625 2.773438 L 104.425781 2.773438 C 105.332031 2.773438 106.183594 2.9375 106.980469 3.257812 C 107.773438 3.582031 108.464844 4.023438 109.050781 4.585938 C 109.636719 5.152344 110.097656 5.816406 110.4375 6.589844 C 110.777344 7.359375 110.945312 8.195312 110.945312 9.089844 "/>
<path style=" stroke:none;fill-rule:nonzero;fill:rgb(1.960754%,34.901428%,29.803467%);fill-opacity:1;" d="M 115.28125 13.835938 C 115.28125 15.101562 115.515625 16.285156 115.984375 17.382812 C 116.457031 18.484375 117.097656 19.441406 117.910156 20.257812 C 118.722656 21.074219 119.675781 21.71875 120.773438 22.191406 C 121.875 22.660156 123.054688 22.898438 124.324219 22.898438 C 125.34375 22.898438 126.296875 22.753906 127.167969 22.464844 C 128.042969 22.179688 128.824219 21.769531 129.507812 21.234375 C 130.191406 20.695312 130.765625 20.054688 131.234375 19.300781 C 131.699219 18.546875 132.042969 17.703125 132.261719 16.769531 L 126.945312 16.769531 C 126.644531 16.769531 126.390625 16.664062 126.183594 16.453125 C 125.976562 16.238281 125.875 15.984375 125.875 15.683594 C 125.875 15.394531 125.976562 15.148438 126.183594 14.933594 C 126.390625 14.722656 126.644531 14.613281 126.945312 14.613281 L 133.484375 14.613281 C 133.808594 14.625 134.082031 14.730469 134.304688 14.925781 C 134.53125 15.121094 134.636719 15.378906 134.625 15.699219 C 134.5 17.035156 134.148438 18.273438 133.582031 19.417969 C 133.011719 20.566406 132.273438 21.558594 131.363281 22.398438 C 130.453125 23.238281 129.398438 23.898438 128.195312 24.371094 C 126.996094 24.851562 125.695312 25.089844 124.304688 25.089844 C 123.269531 25.089844 122.269531 24.957031 121.308594 24.691406 C 120.347656 24.429688 119.457031 24.050781 118.628906 23.5625 C 117.800781 23.074219 117.046875 22.484375 116.367188 21.800781 C 115.6875 21.117188 115.105469 20.359375 114.625 19.523438 C 114.140625 18.691406 113.765625 17.792969 113.5 16.839844 C 113.234375 15.886719 113.105469 14.890625 113.105469 13.855469 C 113.105469 12.84375 113.234375 11.859375 113.492188 10.902344 C 113.753906 9.949219 114.121094 9.054688 114.597656 8.21875 C 115.074219 7.386719 115.652344 6.625 116.332031 5.933594 C 117.011719 5.242188 117.761719 4.648438 118.59375 4.15625 C 119.421875 3.660156 120.316406 3.277344 121.277344 3.007812 C 122.234375 2.738281 123.242188 2.601562 124.289062 2.601562 C 125.792969 2.601562 127.226562 2.882812 128.585938 3.441406 C 129.941406 3.996094 131.179688 4.835938 132.296875 5.949219 C 132.523438 6.167969 132.636719 6.421875 132.632812 6.710938 C 132.625 6.996094 132.519531 7.25 132.3125 7.46875 C 132.105469 7.675781 131.851562 7.78125 131.550781 7.789062 C 131.253906 7.792969 130.996094 7.6875 130.777344 7.46875 C 129.878906 6.582031 128.871094 5.914062 127.75 5.46875 C 126.625 5.019531 125.476562 4.792969 124.304688 4.792969 C 123.085938 4.792969 121.929688 5.023438 120.835938 5.484375 C 119.742188 5.945312 118.785156 6.578125 117.964844 7.390625 C 117.140625 8.203125 116.488281 9.160156 116.003906 10.265625 C 115.519531 11.371094 115.28125 12.558594 115.28125 13.835938 "/>
<path style=" stroke:none;fill-rule:nonzero;fill:rgb(94.902039%,60.00061%,3.137207%);fill-opacity:1;" d="M 39.558594 15.785156 C 41.476562 15.785156 42.773438 13.828125 42.023438 12.058594 L 39.554688 6.242188 L 37.089844 12.0625 C 36.34375 13.832031 37.640625 15.785156 39.558594 15.785156 "/>
<path style=" stroke:none;fill-rule:nonzero;fill:rgb(1.960754%,34.901428%,29.803467%);fill-opacity:1;" d="M 69.125 15.523438 L 61.226562 15.523438 C 60.660156 15.523438 60.199219 15.0625 60.199219 14.492188 L 60.199219 14.082031 C 60.199219 13.511719 60.660156 13.054688 61.226562 13.054688 L 69.125 13.054688 C 69.691406 13.054688 70.15625 13.511719 70.15625 14.082031 L 70.15625 14.492188 C 70.15625 15.0625 69.691406 15.523438 69.125 15.523438 "/>
</g>
</svg>
