<?xml version="1.0" encoding="utf-8"?>
<!-- Generator: Adobe Illustrator 23.0.1, SVG Export Plug-In . SVG Version: 6.00 Build 0)  -->
<svg version="1.1" id="Layer_1" xmlns="http://www.w3.org/2000/svg" xmlns:xlink="http://www.w3.org/1999/xlink" x="0px" y="0px"
	 viewBox="0 0 224 208" style="enable-background:new 0 0 224 208;" xml:space="preserve">
<style type="text/css">
	.st0{filter:url(#Path_17122);}
	.st1{fill:#C6AA6B;}
	.st2{fill:#8AD6F8;}
	.st3{fill:#B1C91F;}
	.st4{fill:#12503C;}
	.st5{fill:#FFFFFF;}
	.st6{fill:#FE9E2D;}
</style>
<filter  filterUnits="userSpaceOnUse" height="375.603" id="Path_17122" width="364.789" x="0" y="0">
	<feOffset  dy="3" input="SourceAlpha"></feOffset>
	<feGaussianBlur  result="blur" stdDeviation="18"></feGaussianBlur>
	<feFlood  flood-opacity="0.2"></feFlood>
	<feComposite  in2="blur" operator="in"></feComposite>
	<feComposite  in="SourceGraphic" operator="over"></feComposite>
</filter>
<g id="Group_413" transform="translate(107.131 138.685)">
	<g transform="matrix(1, 0, 0, 1, -107.13, -138.69)" class="st0">
		<path id="Path_17122-2_1_" class="st1" d="M0,0l204.6,0l-83.4,144.4c-11,19.1-35.5,25.7-54.6,14.6L0,120.6L0,0z"/>
	</g>
	<g id="Group_4" transform="translate(-286.953 -165.285)">
		<path id="Path_13201" class="st2" d="M255.2,59.6c-3.8-0.2-7.6-0.4-11.2,0.4c0.3,0.9-3.7,0-14.1,7.2c-5.3,4-9.4,9.3-11.8,15.5
			c6.6-2.3,16.1-2.8,29.5,1.9c19.4,6.8,32.2,2.5,39.1-4.1C280.7,68.3,268.7,60.4,255.2,59.6"/>
		<path id="Path_13202" class="st3" d="M248.5,87c-13.9-4.6-24.5-3.4-31.2-0.7c-0.9,2.8-1.3,5.6-1.3,8.5
			c-0.9,21.2,15.5,39.2,36.8,40.1c21.2,0.9,39.2-15.5,40.1-36.8c0-0.3,0-0.5,0-0.8c0.2-6.5-1.2-13-4.2-18.9
			C281.8,85.8,268.6,93.7,248.5,87"/>
		<path id="Path_13203" class="st4" d="M228.6,105.4l-0.5-2.4l-6.7,1.5l-0.4-1.9l6.7-1.5l-0.5-2.4l1.6-0.4l1.5,6.9L228.6,105.4z"/>
		<path id="Path_13204" class="st4" d="M222.8,108.7l7.8-3.3l0.7,1.8l-7.8,3.3L222.8,108.7z"/>
		<path id="Path_13205" class="st4" d="M227,116.8c-1.5-2.2-1.4-4.7,0.8-6.3c1.8-1.5,4.5-1.2,6,0.6c0.1,0.1,0.2,0.3,0.3,0.5
			c0.6,0.9,1.1,1.9,1.3,3l-1.7,0.6c-0.1-0.9-0.4-1.8-0.9-2.5c-0.8-1.1-2-1.7-3.7-0.5c-1.1,0.6-1.5,2.1-0.9,3.2
			c0.1,0.2,0.2,0.3,0.3,0.4c0.2,0.3,0.5,0.6,0.8,0.9l1.6-1.2l1.1,1.6l-2.8,2C228.4,118.5,227.6,117.7,227,116.8"/>
		<path id="Path_13206" class="st4" d="M235.4,125l0.3-4l-0.8-0.6l-2,2.6l-1.5-1.1l5.2-6.8l0.9,0.7c0,0,1.4,1,1.7,1.2
			c1.3,1,1.7,2.4,0.8,3.7c-0.6,0.8-1.6,1.1-2.5,0.9l-0.1,0.1l-0.2,4.7L235.4,125z M237.9,117.8c-0.1-0.1-0.4-0.3-0.7-0.5l-1.5,2
			l0.7,0.5c0.5,0.5,1.3,0.5,1.7,0c0,0,0.1-0.1,0.1-0.1C238.8,119,238.6,118.3,237.9,117.8"/>
		<path id="Path_13207" class="st4" d="M238.7,126.9l3.8-7.7l1.7,0.9l-3.8,7.7L238.7,126.9z"/>
		<path id="Path_13208" class="st4" d="M244.8,129.5c-0.9-0.2-1.7-0.7-2.4-1.3l0.8-1.4c0.5,0.6,1.1,1,1.8,1.2
			c0.7,0.2,1.3,0.2,1.5-0.5c0.4-1.3-3.1-2.3-2.4-4.7c0.4-1.5,1.9-2.1,3.6-1.6c0.7,0.2,1.4,0.5,2.1,0.9l-0.7,1.5
			c-0.5-0.3-1.1-0.6-1.7-0.8c-0.8-0.2-1.3-0.1-1.5,0.4c-0.3,1.1,3.2,2.2,2.5,4.7C248,129.5,246.4,130,244.8,129.5"/>
		<path id="Path_13209" class="st4" d="M257.8,130.7l-2.2,0.1l-3.5-8.3l2.1-0.2l2.2,5.7c0.1,0.2,0.2,0.5,0.2,0.7l0.1,0
			c0-0.3,0-0.5,0.1-0.8l1.6-5.8l1.9-0.1L257.8,130.7z"/>
		<path id="Path_13210" class="st4" d="M268.2,128.2l-1.4-1.8l-2.8,1l0,2.2l-1.7,0.6l0.2-9.2l1.8-0.6l5.9,6.9L268.2,128.2z
			 M264.4,123.5c-0.2-0.2-0.3-0.5-0.4-0.7l-0.1,0c0.1,0.3,0.1,0.5,0.1,0.8l0,2.2l1.8-0.6L264.4,123.5z"/>
		<path id="Path_13211" class="st4" d="M276.8,122.9l-4.5,3.1l-4.9-7l1.6-1.1l3.9,5.7l3-2.1L276.8,122.9z"/>
		<path id="Path_13212" class="st4" d="M282.3,117l-3.6,4.1l-6.3-5.7l1.3-1.5l5.1,4.6l2.4-2.8L282.3,117z"/>
		<path id="Path_13213" class="st4" d="M286.3,110l-2.6,4.9l-7.5-4l2.5-4.7l1.4,0.9l-1.5,2.9l1.5,0.8l1.4-2.7l1.4,0.8l-1.4,2.7
			l1.6,0.9l1.7-3.3L286.3,110z"/>
		<path id="Path_13214" class="st4" d="M285.2,102.3l3.1,0.7l-0.4,1.9l-3.1-0.7L279,106l0.3-2.2l3.3-0.9c0.2-0.1,0.4-0.1,0.6-0.1
			l0-0.1c-0.2-0.1-0.4-0.2-0.5-0.4l-2.6-2.2l0.4-1.9L285.2,102.3z"/>
		<path id="Path_13215" class="st5" d="M236.3,67.7c3.5,0.1,6.3-2.7,6.4-6.1c0-0.8-0.1-1.6-0.4-2.4c-3.9,1.3-7.6,3.3-10.9,5.8
			C232.5,66.6,234.4,67.6,236.3,67.7"/>
		<path id="Path_13216" class="st6" d="M237.2,66.5c3,0.1,5.6-2.2,5.7-5.3c0-0.7-0.1-1.4-0.4-2.1c-3.5,1.1-6.8,2.8-9.7,5
			C233.9,65.6,235.5,66.5,237.2,66.5"/>
		<path id="Path_13217" class="st4" d="M293.3,89.9c-0.5-3.3-1.4-6.5-2.7-9.6c-0.2-0.5-0.5-1-0.7-1.6c-0.1-0.2-0.2-0.4-0.3-0.6
			c-0.2-0.4-0.4-0.9-0.7-1.3c-10.3-19-34.1-26.1-53.1-15.8c-8.5,4.6-15.1,12.3-18.3,21.4c-0.3,0.8-0.6,1.7-0.8,2.6
			c0,0.1-0.1,0.3-0.1,0.4c-0.2,0.7-0.4,1.4-0.5,2.1c-1.1,4.8-1.2,9.8-0.4,14.7c3.2,21.6,23.3,36.4,44.9,33.2c0,0,0.1,0,0.1,0
			C281.9,132,296.6,111.6,293.3,89.9 M242.6,60.1c0.8,3.3-1.3,6.6-4.6,7.4c-2.2,0.5-4.4-0.2-5.9-1.8
			C235.2,63.3,238.8,61.4,242.6,60.1 M230.5,66.9c1.5,1.7,3.6,2.7,5.8,2.7c4.6,0.1,8.3-3.5,8.5-8c0-0.7-0.1-1.4-0.2-2.1
			c16.8-4.7,34.6,2.9,42.7,18.3c-23.8-10.4-40.8-6.1-40.8-6.1c17.3-1,34.4,5.4,39.8,7.7c-0.7,0.6-1.3,1.1-2,1.6
			c-6.1,4.3-17.2,8.2-35.3,2.2c-8.2-2.7-19.2-4.8-29.1-1.7C222.1,75.9,225.8,70.9,230.5,66.9 M218.9,84c7.9-3,18-2.6,29.4,1.2
			c18.9,6.2,30.6,2.1,37.1-2.5c0.9-0.6,1.7-1.3,2.5-2c-3.7,5.4-8.6,9.8-14.3,12.8c-6.1,3.2-15.9,5.8-27.6,0.3
			c-12.1-5.7-20.3-8.9-26.9-8.6c-0.2,0-0.3,0-0.5,0C218.6,84.8,218.7,84.4,218.9,84 M260.2,133.6c-20.5,3.1-39.7-11-42.8-31.5
			c0,0,0-0.1,0-0.1c-0.8-4.9-0.6-9.9,0.6-14.7c0.4,0,0.7-0.1,1.1-0.1c6.2-0.3,14.5,3,26,8.5c6,3,12.7,4,19.3,3
			c3.5-0.6,6.9-1.7,10.1-3.4c5.4-2.9,10-6.8,13.7-11.7c0.4-0.5,0.7-1,1.1-1.4c1,2.6,1.7,5.3,2.2,8
			C294.6,110.9,280.6,130.3,260.2,133.6"/>
		<path id="Path_13218" class="st5" d="M302.8,96.6c0-7-1.5-14-4.4-20.4c-0.4-0.8-0.8-1.6-1.2-2.4c-12.2-23.7-41.2-33-64.9-20.8
			c-11.9,6.1-20.8,17-24.4,29.9c-0.4,1.3-0.7,2.6-1,4c-0.6,3.2-1,6.4-1,9.7c0,0.8,0,1.6,0.1,2.4l1.9-0.4c0-0.7-0.1-1.4-0.1-2.1
			c0-4.2,0.6-8.4,1.7-12.4c0.3-1.1,0.7-2.3,1.1-3.4c8.3-24.2,34.6-37,58.8-28.7c11.8,4.1,21.4,12.7,26.8,24c0.4,0.7,0.7,1.5,1,2.3
			c2.4,5.8,3.6,12,3.6,18.2c0,0.7,0,1.4,0,2.1l1.9,0.4C302.7,98.2,302.8,97.4,302.8,96.6"/>
		<path id="Path_13219" class="st5" d="M210.6,107.4c-0.1,0-0.3,0-0.4-0.1c-0.1-0.1-0.2-0.2-0.2-0.3l-0.2-1.1l-3.7,0.8
			c-0.2,0-0.3,0-0.4-0.1c-0.3-0.2-0.4-0.6-0.2-0.9c0.1-0.1,0.2-0.2,0.4-0.3l3.7-0.8l-0.2-1.1c-0.1-0.3,0.1-0.6,0.4-0.6
			c0.1,0,0.3,0,0.4,0.1c0.1,0.1,0.2,0.2,0.2,0.3l0.7,3.4c0,0.1,0,0.3-0.1,0.4C210.9,107.3,210.8,107.4,210.6,107.4"/>
		<path id="Path_13220" class="st5" d="M208.2,113.9c-0.1,0.1-0.3,0-0.5,0c-0.1-0.1-0.3-0.2-0.3-0.4c-0.1-0.2,0-0.3,0-0.5
			c0.1-0.1,0.2-0.3,0.3-0.3l1.7-0.6l-0.6-1.7l-1.7,0.6c-0.2,0.1-0.3,0-0.5,0c-0.1-0.1-0.3-0.2-0.3-0.4c-0.1-0.2,0-0.3,0-0.5
			c0.1-0.1,0.2-0.3,0.3-0.3l4.1-1.4c0.2-0.1,0.3,0,0.5,0c0.1,0.1,0.3,0.2,0.3,0.4c0.1,0.2,0,0.3,0,0.5c-0.1,0.1-0.2,0.3-0.3,0.3
			l-1.4,0.5l0.6,1.7l1.4-0.5c0.2-0.1,0.3,0,0.5,0c0.1,0.1,0.3,0.2,0.3,0.4c0.1,0.2,0,0.3,0,0.5c-0.1,0.1-0.2,0.3-0.3,0.3
			L208.2,113.9z"/>
		<path id="Path_13221" class="st5" d="M210.5,119.1c-0.1,0.1-0.3,0.1-0.4,0c-0.1,0-0.2-0.1-0.3-0.3l-1-2.2c-0.1-0.2-0.1-0.3,0-0.5
			c0.1-0.2,0.2-0.3,0.3-0.4l3.7-1.8c0.2-0.1,0.3-0.1,0.5,0c0.2,0.1,0.3,0.2,0.4,0.4l1,2.1c0.1,0.1,0.1,0.3,0,0.4
			c0,0.1-0.1,0.2-0.3,0.3c-0.1,0.1-0.3,0.1-0.4,0c-0.1,0-0.2-0.1-0.3-0.3l-0.7-1.6l-0.9,0.4l0.7,1.5c0.1,0.1,0.1,0.3,0,0.4
			c0,0.1-0.1,0.2-0.3,0.3c-0.1,0.1-0.3,0.1-0.4,0c-0.1,0-0.2-0.1-0.3-0.3l-0.7-1.5l-1.1,0.5l0.8,1.6c0.1,0.1,0.1,0.3,0,0.4
			C210.7,118.9,210.6,119.1,210.5,119.1"/>
		<path id="Path_13222" class="st5" d="M215.1,126.5c-0.1,0.1-0.3,0.1-0.4,0.1c-0.2,0-0.3-0.1-0.4-0.3c-0.1-0.1-0.1-0.3-0.1-0.5
			c0-0.2,0.1-0.3,0.2-0.4l1.5-1l-1-1.5l-1.5,1c-0.1,0.1-0.3,0.1-0.4,0.1c-0.2,0-0.3-0.1-0.4-0.3c-0.1-0.1-0.1-0.3-0.1-0.5
			c0-0.2,0.1-0.3,0.2-0.4l3.5-2.5c0.1-0.1,0.3-0.1,0.4-0.1c0.3,0.1,0.5,0.4,0.5,0.7c0,0.2-0.1,0.3-0.2,0.4l-1.2,0.9l1,1.5l1.2-0.9
			c0.1-0.1,0.3-0.1,0.4-0.1c0.2,0,0.3,0.1,0.4,0.3c0.1,0.1,0.1,0.3,0.1,0.5c0,0.2-0.1,0.3-0.2,0.4L215.1,126.5z"/>
		<path id="Path_13223" class="st5" d="M218.8,130.9c-0.1,0.1-0.2,0.1-0.4,0.1c-0.1,0-0.3-0.1-0.4-0.2l-1.6-1.8
			c-0.1-0.1-0.2-0.3-0.2-0.5c0-0.2,0.1-0.3,0.2-0.5l3-2.7c0.1-0.1,0.3-0.2,0.5-0.2c0.2,0,0.3,0.1,0.5,0.2l1.5,1.7
			c0.1,0.1,0.1,0.2,0.1,0.4c0,0.1-0.1,0.3-0.2,0.4c-0.1,0.1-0.2,0.1-0.4,0.1c-0.1,0-0.3-0.1-0.4-0.2l-1.1-1.3l-0.7,0.7l1.1,1.2
			c0.1,0.1,0.1,0.2,0.1,0.4c0,0.1-0.1,0.3-0.2,0.4c-0.2,0.2-0.5,0.2-0.7,0l0,0l-1.1-1.2l-0.9,0.8l1.2,1.4
			C219.1,130.4,219,130.7,218.8,130.9"/>
		<path id="Path_13224" class="st5" d="M223.2,135c-0.1,0.1-0.2,0.2-0.4,0.2c-0.4,0-0.7-0.3-0.6-0.7c0-0.1,0-0.2,0.1-0.2l0.3-0.7
			l-1.4-1.3l-0.7,0.4c-0.3,0.2-0.6,0.1-0.8-0.1c-0.1-0.1-0.2-0.2-0.2-0.4c0-0.1,0-0.3,0.1-0.4c0.1-0.1,0.1-0.1,0.2-0.2l3.6-2
			c0.2-0.1,0.4-0.2,0.6-0.2c0.2,0,0.4,0.1,0.6,0.2c0.2,0.1,0.3,0.4,0.3,0.6c0,0.2,0,0.5-0.1,0.7l-1.5,3.8
			C223.4,134.8,223.3,134.9,223.2,135 M223.9,130.6l-1.9,1.1l1,0.9L223.9,130.6z"/>
		<path id="Path_13225" class="st5" d="M227.3,138c-0.2,0.2-0.5,0.3-0.7,0.1l-1.9-1.4c-0.2-0.1-0.3-0.3-0.3-0.4c0-0.2,0-0.3,0.1-0.5
			l2.4-3.4c0.1-0.1,0.2-0.2,0.4-0.2c0.2,0,0.3,0,0.5,0.1c0.1,0.1,0.2,0.2,0.3,0.4c0,0.2,0,0.3-0.1,0.5l-2.2,3.1l1.4,1
			C227.4,137.4,227.5,137.7,227.3,138"/>
		<path id="Path_13226" class="st5" d="M234.1,136.9c-0.1,0.1-0.2,0.2-0.3,0.2c-0.1,0-0.3,0-0.4,0l-0.9-0.5l-1.9,3.3
			c-0.1,0.1-0.2,0.2-0.4,0.3c-0.2,0-0.3,0-0.5-0.1c-0.1-0.1-0.3-0.2-0.3-0.4c-0.1-0.2,0-0.3,0-0.5l1.9-3.3l-0.9-0.5
			c-0.1-0.1-0.2-0.2-0.2-0.3c0-0.1,0-0.3,0-0.4c0.1-0.2,0.5-0.3,0.7-0.2l3,1.7c0.1,0.1,0.2,0.2,0.2,0.3
			C234.2,136.7,234.2,136.8,234.1,136.9"/>
		<path id="Path_13227" class="st5" d="M237.3,143c-0.1,0.1-0.2,0.3-0.3,0.3c-0.2,0.1-0.3,0.1-0.5,0c-0.2-0.1-0.3-0.2-0.3-0.3
			c-0.1-0.1-0.1-0.3,0-0.5l0.7-1.7l-1.6-0.7l-0.7,1.7c-0.1,0.1-0.2,0.3-0.3,0.3c-0.2,0.1-0.3,0.1-0.5,0c-0.2-0.1-0.3-0.2-0.3-0.3
			c-0.1-0.1-0.1-0.3,0-0.5l1.6-4c0.1-0.1,0.2-0.3,0.3-0.3c0.2-0.1,0.3-0.1,0.5,0c0.2,0.1,0.3,0.2,0.3,0.3c0.1,0.1,0.1,0.3,0,0.5
			l-0.6,1.4l1.6,0.7l0.6-1.4c0.1-0.1,0.2-0.3,0.3-0.3c0.3-0.1,0.7,0,0.8,0.3c0.1,0.1,0.1,0.3,0,0.5L237.3,143z"/>
		<path id="Path_13228" class="st5" d="M244.1,140.5c-0.1,0.2-0.2,0.3-0.3,0.4l-1.9,1.5l-0.6,2c0,0.2-0.1,0.3-0.3,0.4
			c-0.1,0.1-0.3,0.1-0.5,0c-0.2,0-0.3-0.1-0.4-0.3c-0.1-0.1-0.1-0.3-0.1-0.5l0.6-2l-0.8-2.2c-0.1-0.1-0.1-0.3-0.1-0.4
			c0-0.1,0.1-0.3,0.3-0.3c0.1-0.1,0.3-0.1,0.4,0c0.2,0.1,0.4,0.3,0.5,0.5l0.5,1.6l1.4-1.1c0.2-0.2,0.4-0.2,0.7-0.2
			c0.2,0,0.3,0.1,0.4,0.3C244.1,140.2,244.1,140.4,244.1,140.5"/>
		<path id="Path_13229" class="st5" d="M252.9,145.2c0,0.4-0.2,0.8-0.5,1.1c-0.3,0.3-0.8,0.4-1.2,0.3c-0.5,0-1-0.3-1.2-0.7
			c-0.3,0.4-0.8,0.6-1.3,0.5c-0.4,0-0.9-0.2-1.1-0.5c-0.3-0.3-0.4-0.8-0.3-1.2l0.3-3.4c0-0.2,0.1-0.3,0.2-0.4
			c0.3-0.2,0.6-0.2,0.9,0.1c0.1,0.1,0.2,0.3,0.1,0.4l-0.3,3.3c0,0.4,0.1,0.6,0.5,0.6c0.3,0,0.5-0.2,0.6-0.6l0.3-3.3
			c0-0.2,0.1-0.3,0.2-0.4c0.1-0.1,0.3-0.1,0.5-0.1c0.2,0,0.3,0.1,0.4,0.2c0.1,0.1,0.2,0.3,0.1,0.4l-0.3,3.3c0,0.4,0.1,0.6,0.5,0.6
			c0.3,0,0.5-0.2,0.6-0.6l0.3-3.3c0-0.2,0.1-0.3,0.2-0.4c0.1-0.1,0.3-0.1,0.5-0.1c0.2,0,0.3,0.1,0.4,0.2c0.1,0.1,0.2,0.3,0.1,0.4
			L252.9,145.2z"/>
		<path id="Path_13230" class="st5" d="M258.5,146c0,0.1,0,0.3-0.1,0.4c-0.1,0.1-0.2,0.2-0.4,0.2l-2.4,0.1c-0.2,0-0.4,0-0.5-0.2
			c-0.1-0.1-0.2-0.3-0.2-0.5l-0.2-4.1c0-0.2,0-0.3,0.2-0.5c0.1-0.1,0.3-0.2,0.5-0.2l2.3-0.1c0.1,0,0.3,0,0.4,0.1
			c0.2,0.2,0.2,0.5,0,0.7c0,0,0,0,0,0c-0.1,0.1-0.2,0.2-0.4,0.2l-1.7,0.1l0,1l1.6-0.1c0.1,0,0.3,0,0.4,0.1c0.1,0.1,0.2,0.2,0.2,0.4
			c0,0.1,0,0.3-0.1,0.4c-0.1,0.1-0.2,0.2-0.4,0.2l-1.6,0.1l0.1,1.3l1.8-0.1c0.1,0,0.3,0,0.4,0.1C258.4,145.7,258.5,145.8,258.5,146"
			/>
		<path id="Path_13231" class="st5" d="M263.7,145.2c0,0.3-0.2,0.5-0.4,0.6l-2.3,0.4c-0.2,0-0.4,0-0.5-0.1c-0.1-0.1-0.2-0.3-0.3-0.4
			l-0.6-4.2c0-0.2,0-0.3,0.1-0.4c0.1-0.1,0.2-0.2,0.4-0.2c0.2,0,0.3,0,0.5,0.1c0.1,0.1,0.2,0.2,0.2,0.4l0.6,3.8l1.8-0.3
			c0.1,0,0.3,0,0.4,0.1C263.6,145,263.7,145.1,263.7,145.2"/>
		<path id="Path_13232" class="st5" d="M268.6,144c0,0.1,0,0.3-0.1,0.4c-0.1,0.1-0.2,0.2-0.3,0.2l-2.3,0.6c-0.2,0.1-0.4,0-0.5-0.1
			c-0.2-0.1-0.3-0.2-0.3-0.4l-1-4.1c0-0.2,0-0.3,0.1-0.5c0.1-0.1,0.2-0.2,0.4-0.3c0.2,0,0.3,0,0.5,0.1c0.1,0.1,0.2,0.2,0.3,0.4
			l0.9,3.7l1.7-0.4C268.3,143.6,268.5,143.7,268.6,144"/>
		<path id="Path_13233" class="st5" d="M274,142c0.1,0.2,0.1,0.3,0,0.5c-0.1,0.2-0.2,0.3-0.4,0.3c-0.3,0.1-0.7,0-0.9-0.2l-1.1-0.9
			c-0.6-0.5-1-0.9-1.4-1.3c0.2,0.4,0.3,0.7,0.4,0.9l0.7,1.8c0.1,0.1,0.1,0.3,0,0.5c-0.1,0.1-0.2,0.3-0.3,0.3c-0.1,0.1-0.3,0.1-0.5,0
			c-0.1-0.1-0.2-0.2-0.3-0.3l-1.5-4c-0.1-0.2-0.1-0.3,0-0.5c0.1-0.2,0.2-0.3,0.4-0.3c0.4-0.1,0.7,0,1,0.3l0.9,0.8
			c0.4,0.3,0.7,0.6,0.8,0.7c0.2,0.2,0.5,0.5,0.7,0.7c-0.2-0.4-0.3-0.7-0.4-0.9l-0.7-1.9c-0.1-0.1-0.1-0.3,0-0.5
			c0.1-0.1,0.2-0.3,0.3-0.3c0.1-0.1,0.3-0.1,0.5,0c0.1,0.1,0.2,0.2,0.3,0.3L274,142z"/>
		<path id="Path_13234" class="st5" d="M279,139.5c0.1,0.1,0.1,0.3,0,0.4c0,0.1-0.1,0.2-0.3,0.3l-2.1,1.1c-0.2,0.1-0.3,0.1-0.5,0.1
			c-0.2,0-0.3-0.2-0.4-0.3l-1.9-3.6c-0.1-0.2-0.1-0.3,0-0.5c0.1-0.2,0.2-0.3,0.3-0.4l2-1.1c0.1-0.1,0.3-0.1,0.4,0
			c0.1,0,0.2,0.1,0.3,0.3c0.1,0.1,0.1,0.3,0,0.4c0,0.1-0.1,0.2-0.2,0.3l-1.5,0.8l0.5,0.9l1.4-0.8c0.3-0.1,0.6,0,0.7,0.2
			s0,0.6-0.2,0.7l0,0l-1.4,0.8l0.6,1.1l1.6-0.9c0.1-0.1,0.3-0.1,0.4,0C278.9,139.3,279,139.3,279,139.5"/>
		<path id="Path_13235" class="st5" d="M282.9,135.7c0.3,0.4,0.4,0.9,0.2,1.3c-0.1,0.5-0.5,0.9-0.9,1.2c-0.4,0.3-0.8,0.5-1.2,0.6
			c-0.4,0.1-0.7,0.1-0.8-0.1c-0.1-0.1-0.1-0.3-0.1-0.4c0-0.2,0.1-0.3,0.3-0.4c0.2-0.1,0.4-0.2,0.6-0.2c0.2,0,0.4-0.1,0.6-0.2
			c0.4-0.3,0.5-0.6,0.3-0.9c-0.1-0.1-0.2-0.2-0.4-0.2c-0.2,0-0.3,0-0.5,0.1l-0.5,0.1c-0.3,0.1-0.7,0.1-1.1,0.1
			c-0.8-0.2-1.3-1-1.1-1.8c0-0.1,0-0.1,0.1-0.2c0.2-0.4,0.5-0.8,0.9-1.1c0.3-0.2,0.7-0.4,1.1-0.5c0.3-0.1,0.6,0,0.7,0.2
			c0.1,0.1,0.1,0.3,0.1,0.4c0,0.1-0.1,0.2-0.2,0.3c-0.2,0.1-0.3,0.2-0.5,0.2c-0.2,0.1-0.5,0.1-0.7,0.3c-0.1,0.1-0.2,0.2-0.3,0.3
			c-0.1,0.1,0,0.3,0,0.4c0.1,0.2,0.4,0.2,0.7,0.1l0.6-0.2c0.4-0.1,0.8-0.2,1.1-0.1C282.3,135.1,282.7,135.3,282.9,135.7"/>
		<path id="Path_13236" class="st5" d="M286.8,132.4c0.3,0.4,0.4,0.8,0.4,1.3c-0.1,0.5-0.4,1-0.8,1.3c-0.3,0.3-0.7,0.5-1.1,0.7
			c-0.4,0.2-0.7,0.1-0.9-0.1c-0.1-0.1-0.2-0.3-0.1-0.4c0-0.2,0.1-0.3,0.2-0.4c0.2-0.1,0.4-0.2,0.6-0.3c0.2-0.1,0.4-0.2,0.6-0.3
			c0.4-0.3,0.5-0.6,0.2-0.9c-0.1-0.1-0.3-0.2-0.4-0.2c-0.2,0-0.3,0.1-0.5,0.1l-0.5,0.2c-0.3,0.1-0.7,0.2-1.1,0.2
			c-0.8-0.1-1.4-0.9-1.3-1.7c0-0.1,0-0.1,0-0.2c0.2-0.5,0.4-0.9,0.8-1.2c0.3-0.3,0.6-0.5,1-0.6c0.3-0.1,0.6-0.1,0.7,0.1
			c0.1,0.1,0.1,0.2,0.1,0.4c0,0.1-0.1,0.3-0.2,0.3c-0.2,0.1-0.3,0.2-0.5,0.2c-0.2,0.1-0.4,0.2-0.6,0.3c-0.1,0.1-0.2,0.2-0.3,0.4
			c-0.1,0.1,0,0.3,0.1,0.4c0.1,0.2,0.4,0.2,0.7,0.1l0.6-0.2c0.4-0.2,0.7-0.2,1.1-0.2C286.2,131.9,286.6,132.1,286.8,132.4"/>
		<path id="Path_13237" class="st5" d="M293.7,124.9c0.3,0.3,0.6,0.7,0.6,1.1c0,0.4-0.1,0.9-0.4,1.2c-0.3,0.4-0.8,0.7-1.3,0.6
			c0.2,0.5,0,1-0.3,1.4c-0.3,0.4-0.6,0.6-1.1,0.7c-0.4,0-0.9-0.1-1.2-0.4l-2.6-2.1c-0.1-0.1-0.2-0.3-0.2-0.4c0-0.3,0.2-0.6,0.6-0.7
			c0.2,0,0.3,0,0.4,0.1l2.5,2.1c0.2,0.2,0.5,0.2,0.7,0.1c0,0,0.1-0.1,0.1-0.1c0.2-0.3,0.2-0.5-0.1-0.8l-2.5-2.1
			c-0.1-0.1-0.2-0.3-0.2-0.4c0-0.3,0.2-0.6,0.6-0.7c0.2,0,0.3,0,0.4,0.1l2.5,2.1c0.3,0.3,0.6,0.2,0.8,0s0.2-0.5-0.1-0.8l-2.5-2.1
			c-0.1-0.1-0.2-0.3-0.2-0.4c0-0.2,0-0.3,0.2-0.4c0.1-0.1,0.2-0.2,0.4-0.2c0.2,0,0.3,0,0.4,0.1L293.7,124.9z"/>
		<path id="Path_13238" class="st5" d="M296.1,118.7c0.6,0.4,1.1,0.9,1.4,1.6c0.2,0.6,0.1,1.3-0.2,1.9c-0.3,0.6-0.9,1-1.5,1.1
			c-0.7,0.1-1.5-0.1-2.1-0.5c-0.6-0.4-1.1-0.9-1.4-1.6c-0.2-0.6-0.1-1.3,0.2-1.9c0.3-0.6,0.9-1,1.6-1.1
			C294.8,118.1,295.5,118.3,296.1,118.7 M295.5,119.8c-0.4-0.3-0.8-0.4-1.3-0.4c-0.3,0-0.6,0.2-0.8,0.5c-0.2,0.3-0.2,0.6,0,0.9
			c0.5,0.8,1.3,1.3,2.2,1.4c0.3,0,0.6-0.2,0.8-0.5c0.2-0.3,0.2-0.6,0-0.9C296.2,120.4,295.9,120,295.5,119.8"/>
		<path id="Path_13239" class="st5" d="M300.4,114.6c0.1,0.1,0.3,0.2,0.3,0.3c0,0.2,0,0.3,0,0.5c-0.1,0.1-0.2,0.3-0.3,0.3
			c-0.1,0.1-0.3,0.1-0.4,0l-0.6-0.3c-0.4-0.2-0.9-0.1-1.1,0.3c0,0.1-0.1,0.1-0.1,0.2l-0.2,0.5l1.4,0.6c0.1,0.1,0.3,0.2,0.3,0.3
			c0.1,0.2,0,0.3,0,0.5c-0.1,0.1-0.2,0.3-0.3,0.3c-0.1,0.1-0.3,0.1-0.5,0l-3.8-1.7c-0.2-0.1-0.3-0.2-0.3-0.4c-0.1-0.2,0-0.4,0-0.5
			l0.5-1.2c0.2-0.4,0.5-0.8,0.9-1c0.4-0.2,0.8-0.1,1.1,0c0.3,0.1,0.5,0.3,0.7,0.6c0.1,0.2,0.2,0.4,0.2,0.6c0.5-0.4,1.1-0.5,1.7-0.2
			L300.4,114.6z M296.9,114.6c-0.4-0.2-0.7-0.1-0.8,0.3l-0.3,0.7l1.2,0.5l0.3-0.7c0.1-0.2,0.1-0.3,0-0.5
			C297.1,114.7,297,114.6,296.9,114.6"/>
		<path id="Path_13240" class="st5" d="M302.1,109.4c0.1,0,0.2,0.1,0.3,0.3c0.1,0.1,0.1,0.3,0,0.4l-0.7,2.3c0,0.2-0.2,0.3-0.3,0.4
			c-0.2,0.1-0.3,0.1-0.5,0l-4-1.3c-0.2,0-0.3-0.2-0.3-0.3c-0.1-0.1-0.1-0.3,0-0.5c0-0.2,0.2-0.3,0.3-0.4c0.1-0.1,0.3-0.1,0.5,0
			l3.6,1.2l0.5-1.7c0-0.1,0.1-0.2,0.3-0.3C301.8,109.4,301.9,109.3,302.1,109.4"/>
		<path id="Path_13241" class="st5" d="M301.2,103.1c0.7,0.1,1.3,0.5,1.8,1c0.4,0.5,0.5,1.2,0.4,1.9l-0.3,1.3c0,0.2-0.1,0.3-0.3,0.4
			c-0.1,0.1-0.3,0.1-0.5,0.1l-4-0.8c-0.2,0-0.3-0.1-0.4-0.3c-0.1-0.2-0.1-0.3-0.1-0.5l0.2-1.2c0.1-0.7,0.5-1.3,1.1-1.6
			C299.8,103,300.5,102.9,301.2,103.1 M301,104.3c-1.1-0.2-1.7,0.1-1.9,1.1l-0.1,0.5l3.2,0.6l0.1-0.5c0.1-0.4,0-0.8-0.2-1.1
			C301.8,104.6,301.4,104.4,301,104.3"/>
	</g>
</g>
</svg>
